<svg xmlns="http://www.w3.org/2000/svg" viewBox="0 0 256 256" width="256" height="256" role="img" aria-label="Portrait illustré">
  <defs><clipPath id="c"><circle cx="128" cy="128" r="128"/></clipPath></defs>
  <g clip-path="url(#c)">
    <rect width="256" height="256" fill="#eeebe5"/>
    <path d="M128 148c42 0 74 26 82 60v48H46v-48c8-34 40-60 82-60z" fill="#a07820"/>
    <rect x="108" y="126" width="40" height="40" rx="18" fill="#5a3418"/>
    <ellipse cx="128" cy="98" rx="46" ry="52" fill="#6b3f1d"/>
    <circle cx="128" cy="70" r="58" fill="#231a12"/>
    <circle cx="86" cy="86" r="26" fill="#231a12"/>
    <circle cx="170" cy="86" r="26" fill="#231a12"/>
    <ellipse cx="128" cy="98" rx="46" ry="52" fill="#6b3f1d"/>
    <ellipse cx="112" cy="98" rx="4.5" ry="5.5" fill="#2b2118"/>
    <ellipse cx="144" cy="98" rx="4.5" ry="5.5" fill="#2b2118"/>
    <path d="M104 84c4-4 12-4 16 0" stroke="#2b2118" stroke-width="3.5" fill="none" stroke-linecap="round"/>
    <path d="M136 84c4-4 12-4 16 0" stroke="#2b2118" stroke-width="3.5" fill="none" stroke-linecap="round"/>
    <path d="M118 120c6 5 14 5 20 0" stroke="#2b2118" stroke-width="3.5" fill="none" stroke-linecap="round"/>
  </g>
</svg>
